<?xml version="1.0" encoding="utf-8"?>
<!-- Generator: Adobe Illustrator 23.0.1, SVG Export Plug-In . SVG Version: 6.00 Build 0)  -->
<svg version="1.1" id="Layer_1" xmlns="http://www.w3.org/2000/svg" xmlns:xlink="http://www.w3.org/1999/xlink" x="0px" y="0px"
	 viewBox="0 0 334.8 106.2" style="enable-background:new 0 0 334.8 106.2;" xml:space="preserve">
<style type="text/css">
	.st0{fill:#D71F2B;}
</style>
<g>
	<g>
		<path class="st0" d="M57.6,35.9c-5.5-1.6-13.2-3-18.4-3C17.6,32.9,0,46.1,0,69.8c0,24.1,17,36.4,37.2,36.4c5.9,0,15-1.2,20.4-3.9
			V83.7c-4.6,1.8-10,2.5-14.3,2.5c-8.8,0-19.1-5.1-19.1-16.1C24.3,57.8,34,53,43.7,53c4.7,0,9.9,1.4,13.9,2.6V35.9z"/>
		<path class="st0" d="M282.7,90.3c-5,0-8.7-2.8-8.7-7.6v-0.3c0-5.2,4.1-8.7,11.3-8.7c3.6,0,6.9,1.1,9.6,2.2
			C294.9,84.9,289.8,90.3,282.7,90.3 M273.9,105.7c9.2,0,15.8-3.5,20.6-8.8v7.2h23.8V63.9c0-9.9-1.7-17.1-7-22.3
			c-5.6-5.6-14.1-8.6-26.7-8.5c-10.2,0-19.7,2.6-28.8,5.6v17.7c7.9-2.9,17.4-4.3,24.8-4.3c9.5,0,14,4.1,14,11.4v1.2
			c-4-1.4-10.4-2.7-16.8-2.7c-16.4,0-27.5,7.5-27.5,22v0.3C250.3,98.1,260.5,105.7,273.9,105.7"/>
		<path class="st0" d="M176.3,35h23.5v10.6l1-1.2c4.5-5.8,10.8-11.2,20.6-11.2c14.6,0,23.3,9.6,23.3,25.2v45.7h-23.5V66.3
			c0-7.9-4.2-12.3-10.4-12.3c-6.3,0-10.9,4.4-10.9,12.3v37.8h-23.5V35z"/>
		<path class="st0" d="M143.8,65.3c8-10.2,1.6-16.2-5.6-14.5c-6.3,1.5-16.1,11.8-8.2,26.4C135.8,73.4,140.6,69.4,143.8,65.3
			 M169.1,95.5c-7.4,5-17.4,10.3-29.7,10.3c-8.9,0-16.9-2.8-22.9-7.1c-12.6,5.7-22.1,7.6-31.7,5.9C69.3,101.8,67.1,87.9,67.1,79
			V35.7H89c0,0,0.1,21.1,0.7,35.9c0.5,12.4,3.1,19,16.8,15c-2.4-5-3.7-11-3.6-17.4c0.3-20.3,16-38.4,36.7-38.4
			c23.5,0,29.1,19.9,20.6,33.5c-5.4,8.6-13.5,15.7-22,21.6c8.4,6.1,21.8,1.8,31.1-4.2V95.5z"/>
		<path class="st0" d="M91.3,13c0,7.2-5.8,13-13,13c-7.2,0-13-5.8-13-13c0-7.2,5.8-13,13-13C85.4,0,91.3,5.8,91.3,13"/>
		<path class="st0" d="M329.5,99.6h0.9c0.7,0,1.3,0,1.3-0.8c0-0.7-0.6-0.8-1.1-0.8h-1.1V99.6z M328.8,97.4h1.8
			c1.2,0,1.7,0.4,1.7,1.4c0,0.9-0.6,1.3-1.3,1.3l1.4,2.2h-0.8l-1.4-2.1h-0.9v2.1h-0.7V97.4z M330.4,103.5c2,0,3.6-1.6,3.6-3.7
			c0-2.1-1.6-3.6-3.6-3.6c-2,0-3.6,1.6-3.6,3.7C326.8,102,328.4,103.5,330.4,103.5 M330.4,95.6c2.4,0,4.3,1.8,4.3,4.3
			c0,2.5-2,4.3-4.3,4.3c-2.3,0-4.3-1.8-4.3-4.3C326.1,97.4,328.1,95.6,330.4,95.6"/>
	</g>
</g>
</svg>
